<?xml version="1.0" standalone="no"?>
<!DOCTYPE svg PUBLIC "-//W3C//DTD SVG 20010904//EN"
 "http://www.w3.org/TR/2001/REC-SVG-20010904/DTD/svg10.dtd">
<svg version="1.0" xmlns="http://www.w3.org/2000/svg"
 width="557.000000pt" height="102.000000pt" viewBox="0 0 557.000000 102.000000"
 preserveAspectRatio="xMidYMid meet">

<g transform="translate(0.000000,102.000000) scale(0.100000,-0.100000)"
fill="#000000" stroke="none">
<path d="M694 938 c-22 -21 -38 -47 -44 -73 -5 -22 -7 -41 -6 -43 10 -9 63 61
78 101 9 26 15 47 12 47 -2 0 -20 -15 -40 -32z"/>
<path d="M190 955 c0 -20 33 -75 59 -99 33 -31 38 -26 20 21 -15 41 -79 104
-79 78z m70 -85 c6 -11 8 -20 6 -20 -3 0 -10 9 -16 20 -6 11 -8 20 -6 20 3 0
10 -9 16 -20z"/>
<path d="M795 951 c-25 -10 -58 -47 -61 -66 -3 -19 29 -3 69 33 39 37 36 51
-8 33z"/>
<path d="M119 920 c39 -33 70 -44 67 -23 -3 19 -56 53 -81 53 -17 -1 -15 -5
14 -30z"/>
<path d="M280 906 c0 -43 19 -80 63 -120 23 -21 31 -31 17 -22 -82 53 -152 71
-188 48 -12 -8 0 -14 98 -42 34 -10 34 -10 -10 -5 -25 2 -63 11 -85 21 -37 15
-38 17 -20 30 18 13 18 14 -6 14 -31 0 -69 -38 -69 -68 0 -12 8 -30 18 -40 16
-16 16 -23 5 -60 -6 -24 -10 -49 -7 -56 3 -8 -8 -41 -25 -75 -37 -73 -38 -79
-6 -91 14 -5 25 -17 25 -28 0 -10 3 -22 7 -25 13 -14 12 -61 -3 -81 -21 -30
-17 -46 20 -90 33 -39 37 -40 124 -44 31 -2 32 -3 32 -46 0 -34 -7 -52 -27
-76 l-27 -32 44 7 c25 4 62 14 83 21 69 24 129 27 198 9 103 -27 150 -37 155
-32 3 3 -6 22 -21 42 -14 22 -25 52 -25 71 0 37 -7 34 99 38 41 1 46 4 73 49
l30 47 -21 35 c-11 20 -16 37 -10 40 15 10 11 23 -8 28 -14 4 -12 5 5 6 16 1
22 7 22 25 0 17 7 26 25 30 32 8 31 12 -5 93 -17 36 -28 74 -25 83 3 9 -1 35
-9 58 -13 35 -13 42 0 53 20 17 17 66 -6 89 -20 20 -67 29 -55 10 4 -6 -10 -8
-38 -4 -48 7 -68 -1 -132 -49 l-40 -31 32 35 c17 19 37 47 42 62 14 35 14 97
1 97 -15 0 -40 -44 -56 -97 -11 -38 -13 -41 -9 -13 2 19 7 45 11 57 5 19 1 23
-30 28 -19 4 -48 3 -63 -3 -18 -6 -38 -6 -53 0 -14 5 -40 6 -58 3 -27 -5 -32
-10 -27 -23 22 -50 13 -59 -11 -13 -33 61 -54 76 -54 37z m154 -111 c16 -99
12 -149 -8 -116 -3 4 -27 11 -54 14 -52 6 -122 35 -122 50 0 5 26 7 60 5 49
-3 65 -9 90 -33 36 -35 38 -24 5 30 -18 29 -25 54 -25 90 l1 50 24 -30 c14
-16 27 -43 29 -60z m85 81 c-2 -2 -15 -9 -29 -15 -24 -11 -24 -11 -6 3 16 13
49 24 35 12z m31 -43 c0 -32 -22 -97 -41 -125 -27 -38 -23 -46 9 -16 15 14 37
31 49 37 25 13 103 15 103 3 0 -13 -86 -51 -130 -58 -27 -4 -48 -16 -62 -33
-15 -19 -19 -21 -13 -6 4 11 11 50 15 86 5 44 14 77 29 98 25 35 41 40 41 14z
m57 -5 c-3 -8 -6 -5 -6 6 -1 11 2 17 5 13 3 -3 4 -12 1 -19z m188 -27 c-22
-19 -161 -59 -151 -43 3 5 23 12 43 16 21 3 49 12 63 20 28 16 59 21 45 7z
m-653 -79 c-18 -5 -42 17 -41 37 1 14 2 14 6 -1 2 -9 11 -19 19 -22 9 -3 12
-2 9 5 -4 5 -3 18 1 27 6 13 8 11 13 -13 5 -21 2 -31 -7 -33z m658 23 c-7 -8
-17 -15 -23 -15 -5 0 -2 9 8 20 21 23 35 19 15 -5z m-595 -33 c-6 -7 -35 18
-35 31 0 5 9 2 20 -8 11 -10 18 -20 15 -23z m525 15 c0 -2 -10 -12 -22 -23
l-23 -19 19 23 c18 21 26 27 26 19z m-409 -87 c7 0 2 12 -12 26 l-24 27 28
-18 c15 -9 27 -14 27 -11 0 12 58 -23 64 -39 5 -14 3 -14 -24 0 -37 19 -51 19
-26 0 24 -18 20 -19 -25 -4 -39 13 -79 46 -79 65 0 7 13 -1 29 -17 16 -16 35
-29 42 -29z m329 30 c0 -15 -46 -60 -62 -60 -7 0 3 15 22 34 42 40 40 39 40
26z m-220 -54 c0 -12 -14 5 -31 39 -8 16 -6 15 10 -4 12 -13 21 -28 21 -35z
m134 16 c-17 -15 -36 -36 -43 -47 -11 -18 -12 -17 -6 10 8 37 -6 25 -22 -18
-11 -30 -12 -31 -12 -6 -1 32 18 58 46 64 13 2 31 8 40 14 31 18 29 11 -3 -17z
m245 -8 c2 -2 -9 -4 -25 -4 -16 0 -40 -3 -54 -6 l-25 -5 25 15 c21 13 64 13
79 0z m-593 -9 c18 -13 17 -14 -12 -6 -17 5 -43 7 -58 4 -15 -3 -26 -1 -26 6
0 16 73 14 96 -4z m132 -49 c24 -31 29 -28 11 7 -11 21 -10 21 6 6 11 -11 15
-24 10 -39 -6 -20 -7 -21 -21 -3 -12 17 -13 16 -14 -9 0 -15 -4 -29 -9 -32 -4
-3 -7 12 -5 34 1 22 -2 42 -7 45 -5 4 -9 14 -9 23 0 17 4 14 38 -32z m-157 16
c-7 -2 -18 1 -23 6 -8 8 -4 9 13 5 13 -4 18 -8 10 -11z m571 -12 c-4 -29 -12
-37 -25 -23 -4 3 -2 12 4 20 9 10 8 13 -2 14 -8 0 -5 4 6 9 11 5 20 9 21 9 0
1 -1 -12 -4 -29z m-162 -15 c-6 -15 -13 -25 -17 -21 -3 3 -15 -2 -25 -11 -18
-16 -19 -16 -13 3 7 19 6 19 -9 0 -9 -11 -16 -16 -16 -12 0 4 10 20 22 34 12
15 18 19 15 10 -9 -26 2 -22 13 5 9 22 9 22 10 -3 l2 -25 10 28 c5 16 12 26
14 24 3 -2 0 -17 -6 -32z m-406 6 c3 -5 -1 -11 -9 -15 -9 -3 -15 0 -15 9 0 16
16 20 24 6z m264 -3 c29 -29 -6 -138 -44 -138 -12 0 -10 5 9 20 31 24 46 83
27 105 -10 12 -16 13 -26 4 -8 -6 -14 -7 -14 -2 0 24 29 30 48 11z m-18 -58
c0 -11 -2 -20 -4 -20 -2 0 -6 9 -9 20 -3 11 -1 20 4 20 5 0 9 -9 9 -20z m170
-42 c0 -38 -5 -34 -13 10 -4 21 -3 31 3 27 6 -3 10 -20 10 -37z m-20 -14 c0
-6 -11 -21 -25 -34 -31 -29 -33 -60 -5 -60 11 0 20 5 20 11 0 5 -4 7 -10 4 -5
-3 -10 -2 -10 4 0 18 17 21 31 5 17 -21 -10 -49 -39 -40 -31 10 -38 44 -14 69
22 23 22 23 22 64 0 26 1 26 15 7 8 -10 15 -24 15 -30z m-225 -34 l6 -65 -21
40 c-11 21 -20 46 -19 55 0 9 4 6 9 -7 14 -34 19 -28 13 15 -3 20 -3 35 0 32
3 -3 9 -35 12 -70z m172 44 c-7 -7 -37 7 -37 17 0 6 9 5 21 -1 11 -7 19 -14
16 -16z m283 -7 c10 -4 8 -6 -7 -6 -16 -1 -23 5 -23 17 0 10 3 13 8 6 4 -6 14
-14 22 -17z m-690 1 c0 -10 -9 -9 -35 2 -17 8 -16 8 8 7 15 -1 27 -5 27 -9z
m183 -24 c-3 -9 3 -21 16 -30 30 -21 26 -38 -4 -18 -17 11 -25 25 -25 46 0 16
4 27 10 23 5 -3 6 -13 3 -21z m197 -17 c0 -7 -4 -6 -11 3 -8 12 -10 9 -6 -12
2 -15 0 -25 -4 -22 -10 6 -12 38 -3 47 9 9 24 -1 24 -16z m116 -13 c-4 -9 -9
-15 -11 -12 -3 3 -3 13 1 22 4 9 9 15 11 12 3 -3 3 -13 -1 -22z m-342 -53 c-6
-7 -33 32 -34 49 0 8 9 2 20 -15 10 -16 17 -31 14 -34z m25 5 c0 -21 0 -21 -9
0 -5 12 -13 25 -19 29 -6 3 -11 11 -11 17 0 6 9 3 20 -7 11 -10 20 -28 19 -39z
m361 35 c0 -11 -4 -22 -9 -25 -5 -4 -7 4 -5 16 3 17 0 15 -12 -9 -19 -35 -13
-63 12 -63 10 0 14 5 10 16 -3 8 -2 12 4 9 15 -9 12 -35 -5 -41 -38 -15 -57
37 -32 89 14 31 37 36 37 8z m-433 -33 c-8 -5 -6 -12 6 -26 32 -35 12 -88 -30
-80 -23 4 -30 46 -8 54 24 10 31 -4 9 -21 -18 -14 -18 -14 4 -15 32 0 38 27
13 60 -23 31 -27 45 -11 35 6 -3 10 2 10 12 0 15 2 16 10 3 6 -9 5 -17 -3 -22z
m530 10 c-3 -8 -6 -5 -6 6 -1 11 2 17 5 13 3 -3 4 -12 1 -19z m-47 -18 c8 -15
8 -25 0 -38 -8 -11 -10 -12 -7 -2 2 8 0 25 -4 38 -11 27 -3 29 11 2z m-334
-18 c-17 -16 -18 -16 -5 5 7 12 15 20 18 17 3 -2 -3 -12 -13 -22z m-245 -16
c12 7 11 -7 -1 -26 -5 -9 -5 -19 2 -27 7 -9 7 -13 0 -13 -14 0 -23 27 -15 48
4 12 3 14 -5 7 -5 -5 -12 -19 -15 -30 -4 -16 -5 -15 -6 6 -1 26 21 58 27 39 2
-5 8 -8 13 -4z m31 -16 c-9 -16 -19 -25 -21 -19 -3 9 26 49 35 49 2 0 -5 -13
-14 -30z m407 14 c2 -2 -7 -4 -22 -4 -14 0 -29 5 -32 10 -6 10 42 4 54 -6z
m177 -30 c-3 -8 -11 -14 -18 -14 -9 0 -9 3 0 12 7 7 13 21 13 33 1 17 2 18 6
2 3 -10 2 -25 -1 -33z m-417 -20 c-16 -20 -53 -14 -57 10 -5 24 14 44 29 29 8
-8 7 -13 -2 -18 -8 -5 -10 -4 -5 3 4 7 2 12 -4 12 -6 0 -10 -8 -8 -17 2 -10
12 -18 23 -18 15 0 21 8 24 30 4 26 5 27 9 7 2 -13 -2 -30 -9 -38z m261 21
c-7 -8 -22 -15 -34 -14 -20 0 -20 0 2 9 12 5 25 17 29 27 4 11 8 13 11 5 2 -7
-2 -19 -8 -27z m227 -1 c3 -18 2 -18 -6 1 -9 19 -10 18 -11 -5 -1 -23 -2 -23
-10 -5 -13 30 -12 33 8 31 9 -2 18 -11 19 -22z m-132 -62 c-5 -13 -8 -14 -14
-3 -6 9 -11 10 -15 2 -11 -17 -44 -13 -55 7 -12 23 2 47 23 39 18 -7 22 -27 5
-27 -5 0 -7 5 -4 10 3 6 1 10 -4 10 -13 0 -15 -27 -2 -34 15 -10 41 5 42 23 0
12 2 12 9 -4 8 -17 9 -16 11 10 1 25 2 26 6 7 3 -13 2 -31 -2 -40z m74 14 c8
-9 8 -16 2 -20 -5 -4 -11 2 -14 11 -4 17 -4 17 -12 -1 -5 -12 -3 -21 6 -27 10
-6 11 -9 1 -9 -16 0 -26 25 -18 45 7 19 20 19 35 1z m-504 -6 c-3 -5 -16 -10
-28 -9 -20 1 -20 2 3 9 14 4 26 8 28 9 2 1 0 -3 -3 -9z m-95 -24 c-7 -7 -13
-7 -20 0 -6 6 -3 10 10 10 13 0 16 -4 10 -10z m104 -8 c-6 -10 -51 -11 -57 0
-3 4 10 7 28 8 19 0 32 -3 29 -8z"/>
<path d="M411 774 c0 -11 3 -14 6 -6 3 7 2 16 -1 19 -3 4 -6 -2 -5 -13z"/>
<path d="M73 883 c13 -21 77 -43 124 -42 l48 1 -45 20 c-50 23 -137 37 -127
21z"/>
<path d="M785 880 c-27 -6 -95 -37 -95 -43 0 -2 26 0 58 3 62 6 118 34 85 42
-10 2 -31 1 -48 -2z"/>
</g>
</svg>
