<?xml version="1.0" standalone="no"?>
<!DOCTYPE svg PUBLIC "-//W3C//DTD SVG 20010904//EN"
 "http://www.w3.org/TR/2001/REC-SVG-20010904/DTD/svg10.dtd">
<svg version="1.0" xmlns="http://www.w3.org/2000/svg"
 width="497.000000pt" height="549.000000pt" viewBox="0 0 497.000000 549.000000"
 preserveAspectRatio="xMidYMid meet">

<g transform="translate(0.000000,549.000000) scale(0.100000,-0.100000)"
fill="#000000" stroke="none">
<path d="M900 5383 c91 -258 165 -398 259 -497 81 -84 232 -207 318 -259 6 -4
-6 33 -28 81 -21 49 -43 111 -48 139 -29 150 -91 272 -195 381 -80 84 -305
262 -331 262 -10 0 -4 -26 25 -107z m286 -290 c28 -43 77 -123 107 -178 31
-55 68 -120 82 -145 l26 -45 -46 50 c-26 28 -63 75 -82 105 -43 66 -155 290
-145 290 4 0 30 -35 58 -77z"/>
<path d="M3954 5423 c-57 -39 -141 -109 -200 -167 -142 -142 -164 -191 -210
-468 -13 -80 -24 -112 -60 -174 -24 -43 -43 -79 -41 -80 1 -2 82 66 178 150
186 163 203 183 278 341 63 133 171 420 171 456 0 17 -16 9 -116 -58z m-175
-361 c-60 -151 -90 -211 -147 -292 -64 -92 -69 -95 -29 -15 19 39 45 93 57
120 69 153 94 202 126 251 20 30 37 54 38 54 2 0 -18 -53 -45 -118z"/>
<path d="M4590 5439 c-142 -37 -203 -62 -303 -126 -93 -59 -181 -152 -255
-268 l-62 -97 37 23 c21 12 90 61 153 109 110 82 186 134 165 113 -50 -51
-211 -183 -273 -225 -165 -110 -200 -152 -65 -76 43 24 112 58 153 77 183 82
286 173 473 419 51 66 50 70 -23 51z"/>
<path d="M302 5401 c2 -6 37 -49 78 -96 132 -153 263 -243 450 -311 41 -14
116 -46 165 -71 l90 -44 -42 39 c-23 21 -69 53 -103 71 -34 18 -100 64 -148
102 -47 38 -95 76 -106 84 -59 44 40 -16 147 -88 65 -44 120 -77 123 -75 9 10
-109 149 -167 196 -106 86 -249 152 -406 186 -84 19 -86 19 -81 7z"/>
<path d="M3393 5253 c-168 -225 -239 -393 -298 -699 -13 -71 -31 -154 -39
-184 l-14 -55 -1 75 c-1 79 21 284 38 360 14 61 59 196 82 244 11 22 19 45 19
52 0 12 -81 42 -172 63 -67 16 -350 13 -421 -3 -31 -8 -77 -26 -102 -40 l-45
-27 -39 26 c-21 15 -63 33 -92 41 -74 19 -325 19 -418 -1 -69 -14 -141 -39
-141 -49 0 -2 18 -37 39 -78 67 -124 91 -220 104 -413 l5 -70 -24 80 c-72 235
-174 440 -291 586 -73 91 -129 143 -138 129 -14 -23 -18 -221 -5 -312 31 -227
100 -336 350 -548 90 -76 250 -231 250 -242 0 -11 -101 55 -181 118 -158 125
-399 266 -529 310 -84 29 -297 27 -408 -4 -105 -28 -194 -64 -193 -77 1 -6 13
-14 29 -18 15 -5 74 -27 132 -49 210 -81 329 -108 570 -128 80 -7 154 -16 165
-20 30 -11 -139 -25 -285 -24 -149 2 -247 24 -425 94 -66 26 -167 64 -225 85
-58 21 -109 42 -114 46 -9 8 108 67 207 104 83 31 65 41 -96 51 -113 6 -118 6
-171 -20 -65 -32 -162 -123 -199 -186 -35 -61 -50 -161 -37 -246 20 -125 56
-181 142 -225 51 -26 59 -34 55 -52 -2 -12 -32 -109 -66 -215 -65 -208 -74
-271 -46 -339 29 -68 22 -90 -116 -371 -72 -147 -151 -306 -175 -354 -24 -47
-44 -99 -44 -116 0 -70 81 -136 178 -145 111 -10 145 -47 124 -139 -17 -71
-15 -133 4 -149 9 -7 52 -15 102 -17 79 -4 162 -29 162 -48 0 -4 -31 -4 -69 0
-91 9 -134 -7 -151 -58 -15 -47 -10 -60 39 -90 78 -50 76 -69 -20 -175 -32
-36 -73 -92 -91 -125 -29 -54 -33 -69 -31 -133 0 -40 7 -89 13 -110 19 -56 76
-130 124 -158 30 -17 46 -35 55 -62 17 -48 91 -153 132 -187 54 -46 104 -66
163 -66 65 0 102 12 137 46 l27 25 22 -31 c12 -17 45 -44 73 -60 45 -26 62
-30 128 -30 50 0 101 7 144 21 37 11 69 18 72 16 2 -3 9 -86 15 -185 9 -155 8
-188 -6 -242 -26 -102 -136 -262 -259 -378 -32 -29 -57 -56 -57 -59 0 -10 220
5 310 22 115 21 251 56 406 106 360 116 600 149 872 118 154 -17 232 -35 441
-105 218 -72 351 -108 456 -124 88 -12 345 -13 345 -1 0 5 -34 49 -76 98 -94
109 -167 210 -205 285 -27 54 -29 64 -28 180 0 118 12 284 20 292 2 3 29 -2
59 -10 104 -28 180 -7 225 64 11 17 22 31 25 31 3 1 15 -15 27 -34 66 -101
241 -128 388 -61 109 50 171 131 204 264 12 50 22 69 39 78 37 19 92 76 108
113 8 20 14 67 14 120 -1 119 -25 170 -148 304 -54 59 -54 91 -2 123 19 12 45
32 58 43 22 20 22 22 7 58 -23 55 -39 63 -124 63 -98 0 -120 13 -66 36 28 13
67 18 131 18 62 1 96 5 107 15 22 18 22 91 1 148 -19 50 -13 88 18 104 12 7
57 15 99 20 95 9 133 28 159 79 26 51 25 59 -9 127 -16 32 -52 120 -81 196
-66 178 -105 263 -170 371 -64 107 -71 148 -40 237 31 89 22 143 -60 387 -38
111 -65 202 -60 202 20 0 114 98 138 144 24 46 27 61 27 156 0 100 -2 109 -34
175 -39 80 -113 156 -190 199 l-51 27 -122 -15 c-67 -9 -124 -18 -126 -21 -3
-2 6 -9 19 -14 139 -52 263 -111 253 -120 -5 -4 -47 -23 -94 -41 -47 -18 -144
-58 -215 -90 -236 -104 -353 -130 -583 -130 -152 0 -207 12 -109 24 163 20
374 60 458 86 93 30 399 152 399 159 0 3 -19 15 -42 25 -267 116 -504 111
-692 -15 -93 -62 -438 -311 -586 -423 -46 -35 86 107 218 234 172 166 226 231
265 318 36 80 46 132 53 292 9 195 -12 370 -45 370 -4 0 -30 -30 -58 -67z
m-43 -402 c-11 -77 -28 -166 -36 -198 -18 -69 -71 -168 -110 -203 l-27 -25 16
25 c29 47 58 134 108 325 63 246 62 241 66 228 2 -6 -5 -75 -17 -152z m-1267
51 c96 -114 162 -210 203 -297 57 -124 64 -168 64 -423 0 -253 4 -279 80 -462
17 -40 30 -74 30 -75 0 -1 -46 44 -102 100 -57 56 -121 110 -142 119 -30 14
-79 20 -200 26 -173 8 -299 33 -463 91 -109 39 -281 129 -336 177 -17 15 -15
17 24 28 23 7 95 20 161 30 159 22 303 15 418 -20 139 -43 199 -78 307 -179
54 -50 124 -116 156 -146 31 -30 60 -52 63 -48 12 12 -77 176 -149 277 -112
154 -164 268 -193 416 -15 82 -31 441 -21 468 9 23 15 18 100 -82z m777 62
c-148 -50 -272 -135 -341 -234 -24 -33 -44 -58 -46 -56 -10 9 58 137 91 174
78 86 198 141 306 141 l65 0 -75 -25z m-1214 -129 c56 -147 92 -228 122 -274
20 -32 18 -31 -18 9 -55 62 -96 127 -113 180 -39 118 -67 248 -47 220 5 -8 31
-69 56 -135z m1314 -135 c0 -308 -61 -512 -215 -720 -34 -47 -70 -100 -80
-119 -24 -47 -56 -143 -50 -149 3 -3 64 53 137 124 155 151 234 212 332 258
117 55 194 69 359 63 143 -5 267 -22 267 -37 0 -24 -308 -199 -482 -274 -79
-34 -171 -54 -324 -70 -186 -20 -216 -38 -353 -210 -84 -106 -121 -146 -121
-132 0 3 22 50 49 104 27 53 61 135 76 181 26 77 27 89 19 175 -12 130 -10
252 5 316 39 163 102 309 178 412 58 80 182 218 194 218 5 0 9 -63 9 -140z
m-1747 -180 c93 -14 144 -26 237 -57 85 -29 165 -67 175 -84 5 -8 2 -8 -11 -1
-11 6 -111 37 -224 70 -281 81 -277 80 -262 81 7 1 46 -4 85 -9z m2687 -22
c-19 -6 -75 -21 -125 -35 -138 -37 -317 -94 -349 -110 -48 -25 -19 4 37 36 77
43 228 91 337 106 114 16 147 17 100 3z m-3252 -128 c-13 -58 -4 -189 15 -226
19 -36 51 -66 97 -90 l35 -18 -40 -9 c-90 -20 -240 14 -301 69 -53 47 -78 165
-54 253 6 23 13 41 15 40 2 -2 8 -40 14 -84 14 -97 43 -144 116 -186 70 -41
81 -38 50 14 -32 55 -34 132 -4 197 18 41 58 94 65 87 2 -1 -2 -23 -8 -47z
m3836 -80 c-8 -61 -39 -113 -89 -149 -43 -31 -125 -55 -167 -49 -20 3 -16 7
26 32 98 57 177 150 207 241 l13 40 8 -35 c4 -19 5 -55 2 -80z m-3644 -96 c38
-63 161 -184 213 -211 27 -13 47 -26 44 -29 -8 -8 -97 16 -140 37 -54 27 -135
105 -153 148 -15 36 -19 107 -7 138 6 15 8 12 14 -13 3 -18 17 -49 29 -70z
m3165 -138 c-44 -94 -170 -187 -249 -185 -20 0 -19 1 4 17 62 42 179 154 220
211 40 56 45 60 48 37 2 -14 -9 -50 -23 -80z m-2699 -143 c43 -151 120 -229
299 -302 172 -71 269 -125 330 -183 l60 -58 -55 29 c-73 39 -143 64 -265 96
-146 38 -215 74 -296 151 -83 81 -119 147 -119 220 0 45 15 104 26 104 2 0 11
-26 20 -57z m182 -27 c15 -13 51 -45 81 -71 55 -48 236 -144 248 -131 4 3 -6
20 -22 36 -16 17 -26 30 -22 30 4 0 39 -16 78 -35 220 -111 318 -214 355 -372
6 -24 2 -22 -23 16 -53 76 -165 148 -308 195 -175 59 -318 166 -387 290 -20
36 -35 66 -32 66 2 0 17 -11 32 -24z m2067 -102 c-63 -219 -248 -383 -430
-384 l-50 0 58 33 c139 78 327 248 397 359 19 30 37 54 38 52 2 -1 -4 -29 -13
-60z m-1448 -67 c55 -35 131 -120 153 -173 15 -34 20 -67 19 -127 l-1 -82 -14
50 c-33 116 -106 227 -224 344 l-65 64 47 -26 c25 -14 63 -36 85 -50z m1083
-69 c-41 -39 -114 -102 -162 -140 -154 -122 -218 -215 -226 -331 -4 -57 -5
-57 -21 -35 -11 16 -16 45 -16 98 0 165 102 286 343 408 79 40 146 72 150 72
4 -1 -27 -33 -68 -72z m-278 -69 c-128 -73 -231 -215 -253 -349 -12 -72 -6
-208 11 -243 8 -17 5 -15 -14 7 -33 40 -66 145 -66 213 0 169 100 304 280 376
88 36 107 34 42 -4z m1496 -55 c74 -17 82 -25 66 -68 -7 -20 -53 -21 -193 -5
-129 15 -172 8 -374 -61 -48 -16 -98 -34 -110 -40 -19 -9 -20 -9 -4 2 10 7 46
32 79 56 58 42 196 116 248 133 36 12 203 3 288 -17z m-3486 -18 c93 -35 219
-107 278 -157 35 -30 35 -30 5 -15 -40 19 -169 60 -275 87 -77 19 -101 21
-247 14 l-162 -6 -7 36 c-3 20 -3 39 0 43 11 10 164 30 246 31 62 0 90 -5 162
-33z m735 -94 c7 -4 17 -29 23 -56 16 -71 30 -93 120 -180 91 -89 109 -116
117 -186 7 -64 -11 -129 -48 -172 l-30 -33 16 33 c19 40 30 120 21 157 -8 32
-78 109 -151 165 -91 70 -136 163 -121 245 7 35 26 45 53 27z m-820 -107 c42
-14 95 -37 119 -51 44 -26 56 -37 32 -29 -7 2 -66 15 -130 30 -111 25 -118 28
-118 51 0 30 4 30 97 -1z m1067 -47 c109 -120 131 -182 104 -297 l-11 -51 -19
71 c-10 40 -45 122 -78 184 -101 190 -100 207 4 93z m1394 -37 c-3 -43 -15
-101 -27 -133 -22 -56 -94 -148 -133 -169 -23 -12 -24 -16 28 66 38 61 78 169
94 256 17 93 19 98 32 75 6 -11 8 -50 6 -95z m952 85 c0 -21 -11 -26 -124 -60
-135 -40 -140 -40 -131 -26 17 27 190 109 233 110 17 0 22 -6 22 -24z m-1105
-92 c36 -136 -26 -253 -192 -365 -40 -26 -73 -46 -73 -44 0 2 33 45 74 96 41
51 86 114 100 139 32 59 56 150 56 215 1 60 12 47 35 -41z m-97 -18 c-8 -94
-43 -161 -137 -261 -91 -96 -108 -119 -127 -173 l-13 -37 -1 36 c0 50 39 121
126 224 74 88 128 182 140 244 11 52 17 34 12 -33z m-2160 -47 c5 -59 7 -60
54 -34 65 37 79 30 30 -15 -49 -44 -134 -80 -190 -80 l-37 0 29 23 c28 23 29
25 22 94 l-7 71 48 -12 c45 -11 48 -15 51 -47z m3312 7 c0 -30 -5 -67 -11 -83
-9 -24 -7 -30 10 -44 12 -10 21 -19 21 -22 0 -7 -64 8 -103 24 -39 15 -130 79
-123 87 3 2 26 -1 52 -8 55 -16 64 -8 64 58 l0 42 45 0 45 0 0 -54z m-2470
-92 c40 -57 64 -135 57 -190 -4 -39 -13 -55 -59 -103 -31 -31 -63 -67 -72 -81
l-16 -24 0 23 c0 13 18 59 40 102 57 112 54 146 -25 316 -19 41 -35 78 -35 81
1 10 75 -75 110 -124z m641 105 c56 -19 94 -55 125 -116 28 -55 29 -64 28
-183 0 -108 -4 -135 -27 -203 -40 -114 -79 -187 -137 -250 -108 -118 -211
-145 -270 -70 -25 32 -26 47 -1 33 53 -28 133 4 214 85 96 96 155 238 164 395
4 90 3 98 -24 150 -68 132 -177 128 -247 -9 l-22 -43 3 63 c3 35 9 77 15 93
22 57 101 81 179 55z m-41 -306 c17 -50 6 -154 -22 -209 -29 -59 -54 -81 -31
-28 26 61 23 160 -6 211 -24 41 -24 43 -6 62 24 27 50 13 65 -36z m965 -170
c22 -45 25 -66 25 -158 0 -78 -4 -115 -16 -138 -19 -37 -61 -84 -88 -99 -17
-9 -17 -7 3 18 39 50 51 92 51 180 0 85 -17 186 -45 264 l-16 44 31 -29 c17
-16 42 -53 55 -82z m-1152 11 c-5 -13 -63 -54 -76 -54 -3 0 1 16 9 35 7 19 14
47 14 62 l0 27 29 -28 c16 -16 27 -34 24 -42z m912 32 c89 -68 103 -243 26
-330 -24 -27 -83 -55 -133 -62 l-43 -6 55 33 c111 68 130 193 55 372 -10 24 2
21 40 -7z m-1146 -57 c-7 -24 -12 -96 -13 -159 0 -125 18 -194 70 -274 l26
-39 -30 22 c-42 29 -78 75 -108 132 -19 39 -24 63 -24 126 0 70 4 85 41 161
23 45 43 81 46 78 2 -2 -1 -24 -8 -47z m828 -19 c25 -56 65 -86 130 -96 23 -3
56 -1 73 4 36 13 39 3 8 -25 -37 -34 -90 -46 -140 -33 -52 14 -76 34 -94 77
-15 34 -19 123 -6 123 4 0 17 -23 29 -50z m1721 -182 c9 -9 27 -8 86 6 46 12
93 17 125 14 76 -7 85 -25 14 -26 -37 0 -83 -10 -127 -27 -86 -33 -131 -30
-160 8 -18 25 -19 32 -8 84 6 30 20 68 29 82 l18 26 5 -77 c3 -42 11 -83 18
-90z m-3882 75 c9 -46 -4 -91 -31 -109 -22 -15 -31 -13 -124 16 -55 18 -118
33 -140 33 -49 2 -48 19 2 31 26 7 54 5 104 -9 125 -32 129 -32 143 10 7 20
10 54 6 74 l-5 36 19 -25 c11 -14 22 -39 26 -57z m2629 -109 c-9 -74 -51 -133
-138 -198 -40 -30 -95 -78 -120 -106 -43 -48 -47 -56 -47 -105 0 -66 28 -111
90 -143 34 -17 55 -22 85 -17 110 15 133 174 23 163 -25 -2 -34 -8 -36 -25 -3
-17 3 -24 22 -29 30 -7 25 -24 -6 -24 -27 0 -58 27 -58 51 0 49 51 99 102 99
33 0 85 -35 108 -72 78 -129 -97 -284 -253 -224 -47 18 -100 64 -122 106 -70
135 -21 254 150 370 101 69 139 113 169 198 14 40 27 83 28 95 1 12 3 -3 6
-33 2 -30 1 -78 -3 -106z m-1466 60 c2 -93 42 -183 132 -294 28 -36 59 -81 67
-100 22 -51 19 -165 -6 -220 l-20 -45 5 66 c5 58 2 74 -21 124 -14 32 -51 89
-82 127 -75 93 -102 151 -110 234 -7 78 13 204 27 169 4 -11 8 -38 8 -61z
m-146 -236 c18 -36 53 -71 170 -170 72 -62 96 -119 78 -187 -18 -67 -31 -74
-31 -18 0 80 -35 123 -151 190 -96 55 -140 137 -141 263 0 64 5 91 24 130 l23
49 5 -110 c4 -79 10 -121 23 -147z m39 200 c-2 -29 4 -86 12 -127 9 -41 14
-76 12 -79 -12 -11 -47 99 -48 152 -2 49 12 106 25 106 1 0 1 -24 -1 -52z
m1792 -219 c1 -99 -1 -108 -27 -147 -15 -23 -32 -42 -37 -42 -13 0 -24 68 -12
83 18 23 41 112 48 187 6 63 9 70 17 50 5 -14 10 -73 11 -131z m-752 94 c-11
-21 -22 -57 -26 -80 -9 -63 11 -180 40 -230 21 -36 22 -42 7 -36 -87 32 -132
147 -107 271 7 36 69 112 90 112 12 0 11 -7 -4 -37z m889 -45 c23 -46 35 -137
25 -191 -4 -20 -29 -69 -56 -111 -87 -133 -105 -183 -93 -260 8 -52 76 -122
127 -131 86 -17 139 18 116 76 -14 34 -38 43 -74 29 -24 -9 -27 -8 -24 7 4 22
44 43 84 43 63 0 107 -67 90 -137 -10 -38 -66 -90 -112 -102 -86 -23 -202 38
-248 130 -21 43 -26 67 -26 130 0 90 17 137 79 219 23 30 51 74 62 97 25 51
37 177 21 222 -15 43 3 30 29 -21z m-816 -15 c-8 -27 -18 -79 -22 -117 -8 -93
-26 -61 -21 39 3 61 7 78 27 99 14 14 26 26 27 26 2 0 -3 -21 -11 -47z m-1243
-220 c82 -86 108 -126 108 -173 0 -36 -30 -104 -66 -145 -22 -26 -24 -27 -13
-5 18 37 16 139 -3 176 -10 17 -38 56 -63 85 -71 82 -85 116 -85 201 l1 73 23
-67 c19 -57 34 -80 98 -145z m2165 141 c36 -79 29 -154 -20 -228 -31 -46 -127
-137 -116 -110 2 6 28 58 58 117 47 91 55 115 55 164 1 32 -2 70 -7 86 -12 45
2 31 30 -29z m-2362 26 c-4 -6 -4 -33 0 -60 6 -47 23 -78 108 -203 32 -49 37
-64 37 -114 0 -51 -4 -64 -30 -93 l-29 -35 10 37 c14 54 -1 100 -68 204 -56
86 -58 91 -57 154 1 60 15 120 29 120 4 0 3 -5 0 -10z m-118 -235 c12 -22 37
-60 57 -85 19 -24 33 -46 31 -48 -8 -8 -85 40 -109 68 -33 40 -40 68 -33 140
7 85 21 97 28 25 3 -33 15 -78 26 -100z m3073 81 c-5 -13 -12 -64 -16 -112 -7
-87 -7 -87 -26 -65 -13 17 -18 39 -18 80 0 46 5 62 27 89 32 38 46 42 33 8z
m-2135 -65 c46 -177 -70 -336 -222 -306 l-38 7 47 12 c79 21 128 67 164 151
24 57 36 158 23 192 -7 18 -7 25 0 18 6 -6 17 -39 26 -74z m-1405 37 c20 -34
26 -102 11 -127 -6 -9 -11 2 -15 34 -4 26 -14 64 -21 86 -17 48 -2 52 25 7z
m3187 -95 c100 -153 121 -229 84 -308 -17 -38 -90 -117 -78 -85 50 131 47 158
-47 402 -42 108 -34 106 41 -9z m-2833 -23 c10 -23 55 -80 99 -129 105 -112
130 -162 135 -264 5 -100 -14 -153 -73 -205 -93 -82 -220 -83 -288 -3 -60 72
-57 161 8 226 40 40 88 52 140 35 63 -21 85 -101 40 -145 -35 -36 -73 -32 -88
8 -5 14 -2 14 23 -5 l30 -22 23 22 c20 21 21 24 7 50 -12 21 -24 28 -54 30
-47 4 -83 -25 -92 -73 -7 -37 15 -89 41 -99 55 -21 148 12 186 65 20 29 24 45
23 109 -1 97 -17 134 -94 206 -34 33 -71 77 -81 99 -19 40 -26 135 -11 135 5
0 16 -18 26 -40z m2748 -177 c23 -24 40 -52 43 -73 5 -33 5 -33 -13 10 -11 24
-39 62 -63 84 -24 21 -35 34 -24 28 11 -6 37 -28 57 -49z m-2916 -39 c-4 -20
-29 -57 -66 -98 -80 -89 -103 -135 -98 -200 3 -28 8 -59 13 -70 14 -31 -33 0
-55 37 -46 75 -19 142 105 262 74 72 95 99 96 121 2 26 2 26 6 5 3 -13 2 -38
-1 -57z m2052 -43 c49 -25 133 -28 185 -6 50 21 54 19 26 -11 -62 -67 -193
-73 -281 -12 -25 17 -58 74 -73 128 -7 21 1 17 47 -26 30 -29 73 -61 96 -73z
m1238 0 c20 -65 15 -156 -13 -203 -36 -63 -115 -97 -188 -84 -38 7 -48 26 -15
26 58 0 130 57 161 125 32 74 34 125 5 196 l-25 64 29 -35 c16 -19 36 -59 46
-89z m-96 -3 c0 -51 -25 -113 -56 -139 -9 -8 -15 -9 -13 -4 3 6 14 28 24 50
14 29 19 62 20 121 0 74 1 79 13 51 6 -16 12 -51 12 -79z m-3530 24 c-116
-162 -135 -211 -128 -334 1 -36 -1 -64 -6 -61 -4 3 -19 30 -32 60 -46 103 -28
207 48 280 39 38 141 111 147 106 3 -2 -11 -25 -29 -51z m1257 -81 c35 -90 17
-199 -43 -269 -45 -54 -93 -74 -169 -75 -71 -1 -107 16 -158 72 -39 44 -53 89
-44 153 7 55 35 90 84 107 36 13 43 12 79 -5 24 -12 42 -29 48 -46 22 -65 -41
-125 -85 -82 l-20 21 30 -5 c29 -4 31 -2 31 27 0 21 -7 35 -24 46 -22 15 -27
15 -54 1 -46 -24 -59 -73 -34 -128 11 -24 32 -54 46 -68 24 -22 37 -25 96 -25
54 0 75 4 97 21 68 50 105 176 78 265 -8 29 -22 64 -31 78 -14 21 -10 20 20
-8 19 -19 43 -55 53 -80z m-1087 91 c0 -5 -26 -40 -59 -78 -102 -122 -121
-184 -81 -272 14 -30 34 -51 71 -75 37 -23 47 -33 35 -35 -34 -7 -85 9 -116
35 -46 38 -63 80 -63 148 0 101 45 171 159 250 56 39 54 38 54 27z m3725 -158
c22 -54 20 -175 -5 -223 -20 -40 -73 -91 -93 -91 -9 0 -9 2 0 8 25 16 53 97
53 154 0 85 -17 154 -61 243 l-39 80 65 -67 c35 -37 71 -84 80 -104z m-1149
58 c17 -89 -57 -197 -155 -226 -70 -21 -117 -9 -171 43 -49 46 -53 69 -7 41
21 -13 50 -20 86 -20 120 0 201 78 201 194 l0 61 20 -30 c11 -16 23 -45 26
-63z m1228 -14 c53 -61 58 -172 12 -233 -14 -18 -15 -13 -16 60 0 88 -18 139
-70 205 -16 21 -30 40 -30 44 0 13 73 -40 104 -76z m-217 -71 c4 -26 -1 -49
-17 -82 -12 -25 -24 -45 -25 -43 -2 2 3 32 12 68 8 35 12 75 10 88 -3 14 -1
20 5 14 5 -5 11 -25 15 -45z m-2595 -66 c-10 -14 -27 -28 -37 -29 -15 -3 -13
2 8 30 14 18 29 47 34 63 l8 30 3 -34 c2 -22 -3 -43 -16 -60z m265 29 c-7 -55
-49 -149 -81 -179 -12 -11 -38 -27 -58 -35 l-37 -16 48 48 c47 47 121 177 121
213 0 11 3 19 6 19 4 0 4 -22 1 -50z m1871 -174 c7 -89 -21 -170 -80 -228 -31
-32 -56 -48 -72 -48 -13 0 -33 -3 -43 -6 -10 -3 -4 3 14 15 74 47 120 157 130
309 l7 107 20 -45 c11 -25 22 -71 24 -104z m-148 72 c49 -109 -2 -253 -110
-308 -114 -58 -269 10 -301 132 -26 96 29 178 124 186 49 4 57 2 90 -28 30
-26 37 -39 37 -68 0 -65 -57 -95 -100 -52 -24 24 -28 49 -6 31 8 -7 27 -11 43
-9 36 4 43 38 14 67 -30 30 -67 26 -102 -8 -62 -62 -27 -174 65 -205 126 -43
260 105 230 254 -6 27 -9 50 -7 50 2 0 13 -19 23 -42z m-513 -213 c12 -22 38
-57 59 -77 44 -45 35 -48 -21 -10 -48 33 -74 82 -81 154 l-4 53 13 -40 c8 -22
23 -58 34 -80z m1013 72 c39 -20 73 -77 66 -112 -14 -68 -78 -95 -130 -54 -33
26 -34 45 -1 23 30 -20 51 -13 67 21 16 36 -5 73 -49 81 -43 8 -80 -15 -100
-64 -20 -47 -3 -101 44 -142 35 -31 105 -55 132 -45 13 5 14 4 3 -7 -22 -22
-135 -17 -169 8 -35 25 -72 98 -73 142 0 60 41 135 85 153 30 12 97 10 125 -4z
m-2871 -38 c-28 -82 -123 -131 -212 -108 -25 6 -52 18 -61 28 -13 15 -9 16 51
13 82 -5 136 15 188 68 21 22 40 38 42 36 2 -1 -2 -18 -8 -37z m-699 -123 c26
-16 52 -21 102 -21 60 0 70 3 97 29 22 21 31 25 31 14 0 -19 -57 -77 -88 -89
-38 -15 -112 -10 -143 8 -16 10 -41 40 -54 67 -31 62 -33 90 -2 46 12 -19 38
-43 57 -54z m779 -51 c-39 -84 -132 -123 -245 -104 -73 13 -117 37 -144 81
-30 50 -24 59 14 23 53 -50 135 -66 222 -44 49 13 147 93 161 132 7 20 8 19
11 -9 2 -18 -7 -52 -19 -79z"/>
<path d="M2105 4675 c11 -87 55 -272 92 -383 31 -97 91 -227 99 -219 9 9 -98
397 -149 544 -36 102 -50 121 -42 58z"/>
<path d="M1536 4121 c5 -6 70 -28 144 -50 218 -64 271 -80 340 -102 35 -12 71
-24 80 -26 26 -9 -42 37 -103 68 -85 44 -228 88 -337 105 -113 17 -138 18
-124 5z"/>
<path d="M2797 4488 c-43 -109 -171 -528 -163 -535 19 -19 124 245 171 427 16
63 30 170 22 170 -3 0 -16 -28 -30 -62z"/>
<path d="M3261 4029 c-114 -29 -238 -78 -315 -123 -41 -24 -123 -86 -114 -86
3 0 39 16 81 35 41 19 133 54 203 78 212 72 336 129 277 126 -10 0 -69 -14
-132 -30z"/>
<path d="M300 5014 c-14 -3 -44 -7 -67 -10 -24 -3 -43 -9 -43 -13 0 -10 208
-135 295 -179 155 -76 160 -77 473 -77 155 0 282 0 282 1 0 1 -84 43 -187 94
-256 126 -344 159 -480 179 -68 10 -218 13 -273 5z m490 -168 c8 -4 -1 -4 -20
-1 -19 3 -39 10 -44 15 -10 10 19 3 64 -14z m144 -31 c95 -25 148 -43 133 -44
-11 -1 -251 60 -256 65 -11 10 37 2 123 -21z"/>
<path d="M4365 4985 c-134 -25 -224 -62 -425 -178 -58 -33 -124 -71 -148 -84
-24 -14 -41 -27 -38 -30 3 -3 55 2 115 12 96 16 122 17 199 7 118 -16 166 -15
237 3 98 26 268 118 404 218 l56 41 -75 12 c-97 16 -236 15 -325 -1z m45 -100
c0 -10 -83 -41 -145 -54 -33 -8 -107 -24 -164 -38 -57 -13 -105 -22 -108 -20
-14 15 206 78 331 96 38 5 71 12 74 15 7 7 12 8 12 1z"/>
</g>
</svg>
